<svg id="Calque_1" data-name="Calque 1" xmlns="http://www.w3.org/2000/svg" viewBox="0 0 577.05 179.2"><title>shinju</title><path d="M47.22,77.73l-10,11Q25.18,68.61,2.4,57.81l9.43-11.62Q32.29,53.14,47.22,77.73Zm9,27.25a139,139,0,0,1-10.3,32.18q-7.08,15.38-26.09,36.77l-13.57-9q26.42-22.16,36.57-67.32Zm4.39-70.8L49.83,45.61q-8.59-16.9-34-30.67l10-10.54A81.09,81.09,0,0,1,60.6,34.18ZM109.43,138q-37.5,24.51-51.17,31.15l-9-13.18Q96.93,129.78,101,125.61ZM184,81.15H53.18V66.21H75.46V19.73H90.89V66.21h23v-65L129.5,1V26.61h40.64l.19,14.46H129.66V66.21h54.39Zm-74.21,28.62L97.83,121Q73.52,104.4,61.7,97L74.3,86.16q4.77,4.2,18,12.36T109.83,109.77Zm73.45,47.16-8.2,14.26q-20.33-9.57-54.4-32l8.6-11.82Zm-11.23-59q-11.22,11.14-37.61,26.48a87.36,87.36,0,0,0-10.15-11q27.83-15.33,35-24.41Z" transform="translate(-2.4 0)" fill="#fff"/><path d="M386.19,110.74l-11.36,11.62A217.63,217.63,0,0,1,344,104v74.42H328.83V164.55h-71v13.87H242.06V103.81q-10.84,8.68-30,19.14l-12.4-11.13q63.06-30.67,92.76-87.89l12.21,8.49c-1.76,3.45-3,5.69-3.62,6.74q0,3.31,23.83,28.86T386.19,110.74ZM271.83,8.4Q258,41.2,219.59,62.21l-12.11-10.6q31.44-15,52.74-51.61ZM336,98.73A234.55,234.55,0,0,1,292.83,54q-14.44,20-42.76,44.73ZM328.83,150V113.38h-71V150Zm44.34-97.66L361.17,63q-13.85-29.68-51.34-52L320.08.39q35.85,21.23,53.12,52Z" transform="translate(-2.4 0)" fill="#fff"/><path d="M579.45,167.77H434.63V179.2H419.39V10.94H572.83V25.39H434.63v128H579.45Zm-20.79-27.63-13.18,8.79a284.18,284.18,0,0,0-35.85-49.52q-17.88,25.2-53.23,50.79l-11.81-12.8Q479,115.92,499.47,87.6,478.1,64.16,448,41.21l11.43-9.47q30.46,23.73,48.39,42.87A434.39,434.39,0,0,0,535,31.15l12.79,7q-6.27,12.8-29.21,47.95Q544.12,113.09,558.66,140.14Z" transform="translate(-2.4 0)" fill="#fff"/></svg>