<?xml version="1.0" encoding="utf-8"?>
<!-- Generator: Adobe Illustrator 24.0.1, SVG Export Plug-In . SVG Version: 6.00 Build 0)  -->
<svg version="1.1" id="Calque_1" xmlns="http://www.w3.org/2000/svg" xmlns:xlink="http://www.w3.org/1999/xlink" x="0px" y="0px"
	 viewBox="0 0 577 179.2" style="enable-background:new 0 0 577 179.2;" xml:space="preserve">
<style type="text/css">
	.st0{fill:#FFFFFF;}
</style>
<title>shinju</title>
<path class="st0" d="M47.2,77.7l-10,11C29.2,75.3,17.6,65,2.4,57.8l9.4-11.6C25.5,50.8,37.3,61.3,47.2,77.7z M56.2,105
	c-2.1,11.1-5.6,21.9-10.3,32.2c-4.7,10.3-13.4,22.5-26.1,36.8l-13.6-9c17.6-14.8,29.8-37.2,36.6-67.3L56.2,105z M60.6,34.2
	L49.8,45.6c-5.7-11.3-17.1-21.5-34-30.7l10-10.5C40,10.8,52.1,21.1,60.6,34.2L60.6,34.2z M109.4,138c-25,16.3-42.1,26.7-51.2,31.1
	l-9-13.2c31.8-17.4,49-27.6,51.8-30.4L109.4,138z M184,81.2H53.2V66.2h22.3V19.7h15.4v46.5h23v-65L129.5,1v25.6h40.6l0.2,14.5h-40.7
	v25.1H184L184,81.2z M109.8,109.8l-12,11.2c-16.2-11.1-28.3-19.1-36.1-24l12.6-10.8c3.2,2.8,9.2,6.9,18,12.4S107,107.7,109.8,109.8z
	 M183.3,156.9l-8.2,14.3c-13.5-6.4-31.7-17-54.4-32l8.6-11.8L183.3,156.9z M172,97.9c-7.5,7.4-20,16.3-37.6,26.5
	c-3.1-4-6.5-7.6-10.1-11c18.6-10.2,30.2-18.4,35-24.4L172,97.9z"/>
<path class="st0" d="M386.2,110.7l-11.4,11.6c-10.8-5.3-21.1-11.4-30.9-18.4v74.4h-15.1v-13.9h-71v13.9h-15.8v-74.6
	c-7.2,5.8-17.2,12.2-30,19.1l-12.4-11.1c42-20.4,73-49.7,92.8-87.9l12.2,8.5c-1.8,3.4-3,5.7-3.6,6.7c0,2.2,7.9,11.8,23.8,28.9
	S361.2,99.3,386.2,110.7z M271.8,8.4c-9.2,21.9-26.7,39.8-52.2,53.8l-12.1-10.6c21-10,38.5-27.2,52.7-51.6L271.8,8.4z M336,98.7
	c-16.3-12.9-30.8-28-43.2-44.7c-9.6,13.3-23.9,28.2-42.8,44.7L336,98.7z M328.8,150v-36.6h-71V150H328.8z M373.2,52.3l-12,10.7
	c-9.2-19.8-26.3-37.1-51.3-52l10.2-10.6C344,14.5,361.7,31.9,373.2,52.3L373.2,52.3z"/>
<path class="st0" d="M579.5,167.8H434.6v11.4h-15.2V10.9h153.4v14.4H434.6v128h144.8V167.8z M558.7,140.1l-13.2,8.8
	c-10.1-17.7-22.1-34.3-35.8-49.5c-11.9,16.8-29.7,33.7-53.2,50.8l-11.8-12.8c22.9-14.3,41.2-30.9,54.9-49.8
	C485.2,72,468.1,56.5,448,41.2l11.4-9.5c20.3,15.8,36.4,30.1,48.4,42.9c9.9-13.9,19-28.5,27.2-43.5l12.8,7
	c-4.2,8.5-13.9,24.5-29.2,48C535.6,104.1,549,122.1,558.7,140.1z"/>
</svg>
