<svg id="Calque_1" data-name="Calque 1" xmlns="http://www.w3.org/2000/svg" viewBox="0 0 577.05 179.2"><title>shinju</title>
<path fill="#fff" d="M54.39,86.12l-10,11Q32.33,77,9.57,66.2L19,54.58Q39.46,61.53,54.39,86.12Zm9,27.25a139.69,139.69,0,0,1-10.3,32.18Q46,160.93,27,182.32l-13.57-9Q39.84,151.16,50,106Zm4.39-70.8L57,54q-8.6-16.9-34-30.67L33,12.79A81.16,81.16,0,0,1,67.77,42.57ZM116.6,146.38q-37.5,24.51-51.17,31.15l-9-13.18Q104.1,138.18,108.2,134Zm74.61-56.84H60.35V74.6H82.62V28.12H98.05V74.6h23v-65l15.62-.19V35h40.63l.19,14.46H136.82V74.6h54.39ZM117,118.16l-12,11.23q-24.32-16.6-36.13-24l12.6-10.84q4.77,4.2,18,12.36T117,118.16Zm73.44,47.16-8.2,14.26q-20.32-9.57-54.4-32l8.6-11.82Zm-11.23-59Q168,117.47,141.6,132.8a86.15,86.15,0,0,0-10.15-11q27.83-15.33,35-24.41Z"/>
<path fill="#fff" d="M393.36,119.13,382,130.75a218.76,218.76,0,0,1-30.86-18.36v74.42H336V172.94H265v13.87H249.22V112.2q-10.84,8.68-30,19.14l-12.4-11.13q63.07-30.67,92.77-87.89l12.21,8.49q-2.64,5.17-3.62,6.74,0,3.31,23.83,28.86T393.36,119.13ZM279,16.79q-13.86,32.8-52.24,53.81L214.65,60Q246.09,45,267.38,8.39Zm64.16,90.33A234.41,234.41,0,0,1,300,62.39q-14.46,20-42.77,44.73ZM336,158.39V121.77H265v36.62Zm44.33-97.66-12,10.65Q354.49,41.7,317,19.33L327.25,8.78Q363.09,30,380.37,60.73Z" />
<path fill="#fff" d="M586.62,176.16H441.8v11.43H426.56V19.33H580V33.78H441.8v128H586.62Zm-20.8-27.63-13.18,8.79A284.42,284.42,0,0,0,516.8,107.8q-17.88,25.2-53.23,50.79l-11.81-12.8q34.37-21.48,54.88-49.8Q485.25,72.55,455.18,49.6l11.42-9.47Q497.07,63.86,515,83a433.21,433.21,0,0,0,27.15-43.46l12.79,7q-6.26,12.8-29.2,47.95Q551.27,121.48,565.82,148.53Z" /></svg>