<svg xmlns="http://www.w3.org/2000/svg" viewBox="0 0 588.3 187.41"><title>Fichier 1</title><g id="Calque_2" data-name="Calque 2"><g id="Calque_1-2" data-name="Calque 1"><path d="M55.65,120.25c7.44,5.22,28.55,22.32,33.58,26.74l-8,10.26C76.61,152,64.75,141,55.7,132.91V187H42.38V131.51C32.72,147.39,20.26,162.27,9,171.08a53.61,53.61,0,0,0-9-9.85c14.27-9.45,30-28.36,39.81-46.86h-36V102.55H42.38V81.24H1.15V69.37H25.89a122.79,122.79,0,0,0-8.65-31l10.86-3c4.62,10,8.44,23.12,9.45,31.77l-7.44,2.21H63.89c-2.61-1-5.43-2-5.63-2A222.94,222.94,0,0,0,69.52,34.79l15.3,4.82c-.4,1.21-1.81,1.81-4,2C78,49.46,73.18,61.12,69.16,69.36H98.52V81.24H57.66a6,6,0,0,1-2,.4v20.91H95.47v11.86H55.65Zm38.6-97.53V34.38H5.18V22.72h37.2V.2l17.09,1c-.2,1.4-1.21,2.41-3.82,2.81v18.7ZM188,69.37V82.08H164.23v105H151v-105H119.19v7.4c0,30.16-3.82,70-32.78,97.93A30.23,30.23,0,0,0,77,178c26.34-25.34,29.36-60.13,29.36-88.68v-70l9.85,3.22c20.91-6,43.44-14.28,56.1-21.72l13.48,10.3c-.61.6-2,1-4.23.6-14.88,7.4-39.61,15.67-62.33,21.3V69.37Z" fill="#fff"/><path d="M228.57,187.21V101.55c-7,9.65-14.27,18.7-21.92,25.94a57.49,57.49,0,0,0-8.44-10.41c18.1-16.89,36-45.24,47-73.6l15.89,5.43c-.4,1.41-2,2.21-4.43,2a280.33,280.33,0,0,1-16.69,33l5.23,1.61c-.2,1.41-1.41,2.41-3.82,2.81v98.94Zm-4-155.44V53.49H211.28V19.3h76.81V0L306,1.21c-.2,1.4-1.41,2.41-4,2.61V19.3h78.83v32h-13.7V31.77ZM386,68.57H328.71c-1.61,6.23-4,14.68-6.43,22.12h52.08V186.6H360.88v-7.24h-74.4V187H273.61V90.69h35.6c1.81-6.84,3.82-14.88,5.43-22.12H261.35V56.3H386Zm-25.14,59.51V102.55h-74.4v25.53Zm-74.4,39.21h74.4V139.55h-74.4Z" fill="#fff"/><path d="M588.3,162.27v12.87H427.82v12.27H414.37V13.08H583.88V26.14H427.82V162.27ZM459,49.47a565.86,565.86,0,0,1,49.06,33,303.22,303.22,0,0,0,32.17-48.69c9.25,4,12.87,5.43,16.29,6.84-.6,1.41-2.61,2-5,1.61a340.93,340.93,0,0,1-32.78,48.26c19.1,14.88,36,30,47,42.83l-10.66,10c-10.25-12.67-26.34-27.75-44.84-42.63A304.78,304.78,0,0,1,452.59,152a99.61,99.61,0,0,0-10.85-9.25C462,129.85,482,112.35,499.65,92.25a569.42,569.42,0,0,0-49.87-34.39Z" fill="#fff"/></g></g></svg>